<?xml version="1.0" standalone="no"?>
<!DOCTYPE svg PUBLIC "-//W3C//DTD SVG 20010904//EN"
 "http://www.w3.org/TR/2001/REC-SVG-20010904/DTD/svg10.dtd">
<svg version="1.0" xmlns="http://www.w3.org/2000/svg"
 width="3000.000000pt" height="3000.000000pt" viewBox="0 0 3000.000000 3000.000000"
 preserveAspectRatio="xMidYMid meet">
<metadata>
Created by potrace 1.14, written by Peter Selinger 2001-2017
</metadata>
<g transform="translate(0.000000,3000.000000) scale(0.100000,-0.100000)"
fill="#000000" stroke="none">
<path d="M14315 29971 c-9 -8 -129 -66 -530 -256 -55 -26 -192 -91 -305 -145
-113 -54 -248 -118 -300 -143 -120 -56 -509 -242 -660 -314 -63 -31 -146 -70
-185 -88 -66 -31 -182 -86 -445 -212 -63 -31 -155 -75 -205 -98 -110 -52 -260
-123 -463 -221 -85 -41 -155 -74 -157 -74 -2 0 -87 -40 -190 -90 -103 -49
-188 -90 -190 -90 -3 0 -46 -21 -97 -46 -51 -25 -145 -69 -208 -99 -63 -29
-178 -83 -255 -120 -263 -126 -340 -163 -450 -215 -236 -112 -285 -135 -435
-207 -85 -41 -202 -97 -260 -123 -58 -27 -147 -69 -198 -94 -50 -25 -94 -46
-96 -46 -3 0 -89 -40 -192 -90 -102 -49 -188 -90 -190 -90 -1 0 -91 -43 -199
-95 -108 -52 -198 -95 -200 -95 -2 0 -87 -40 -190 -90 -103 -49 -188 -90 -190
-90 -2 0 -83 -38 -180 -85 -97 -47 -178 -85 -180 -85 -2 0 -92 -43 -200 -95
-108 -52 -198 -95 -199 -95 -2 0 -77 -35 -167 -79 -90 -43 -200 -95 -244 -116
-44 -21 -132 -62 -195 -92 -63 -30 -162 -77 -220 -103 -58 -27 -151 -71 -208
-99 -56 -28 -104 -51 -106 -51 -2 0 -80 -36 -173 -81 -390 -187 -564 -269
-568 -269 -2 0 -82 -37 -177 -83 -95 -46 -220 -106 -278 -132 -58 -27 -123
-60 -145 -74 -36 -22 -501 -251 -510 -251 -2 0 -77 -35 -167 -79 -228 -110
-379 -181 -383 -181 -2 0 -63 -29 -137 -64 -73 -35 -185 -88 -249 -119 -180
-84 -377 -196 -419 -237 -9 -9 -21 -29 -27 -45 -31 -77 -34 -155 -30 -605 5
-640 -10 -602 297 -762 52 -28 102 -56 110 -62 26 -22 158 -93 410 -221 25
-12 74 -33 110 -45 36 -13 109 -47 162 -76 53 -30 99 -54 103 -54 3 0 59 -29
123 -63 64 -35 212 -113 327 -172 247 -127 369 -191 410 -215 17 -10 129 -68
250 -130 121 -62 254 -131 295 -153 41 -21 217 -113 390 -204 173 -91 351
-185 395 -208 44 -23 148 -77 230 -120 83 -43 182 -95 221 -116 40 -21 213
-112 385 -202 173 -91 350 -184 394 -207 44 -23 141 -74 215 -112 74 -39 196
-103 270 -143 74 -40 212 -112 305 -160 94 -48 175 -91 180 -95 6 -4 116 -63
245 -130 256 -133 513 -269 740 -390 80 -43 204 -108 275 -145 202 -105 290
-152 427 -226 69 -38 128 -69 131 -69 2 0 40 -20 83 -43 44 -24 133 -72 199
-107 66 -34 156 -82 201 -106 45 -24 92 -44 105 -44 83 1 167 33 382 146 360
189 983 516 1412 741 220 116 474 250 565 298 91 48 217 114 280 147 188 99
335 176 515 271 154 81 387 204 675 354 128 67 255 135 335 178 33 18 112 59
175 93 63 33 248 130 410 215 162 85 369 194 460 242 228 121 504 266 635 335
61 31 153 80 205 107 52 28 221 117 375 198 154 81 350 185 435 230 85 45 214
113 285 150 72 38 162 85 200 105 39 21 205 108 370 195 165 86 323 170 350
185 28 15 109 58 180 95 72 37 144 76 160 85 17 10 82 45 145 78 63 33 196
102 295 155 99 52 313 164 476 250 163 85 328 173 367 195 39 22 110 57 157
77 l87 38 44 -22 c25 -11 49 -21 54 -21 5 0 110 -55 232 -121 571 -311 784
-427 794 -430 29 -11 184 -104 184 -110 0 -5 -30 -23 -67 -42 -38 -18 -423
-220 -858 -447 -434 -228 -821 -430 -860 -450 -38 -20 -164 -86 -280 -147
-115 -61 -268 -141 -340 -178 -183 -95 -338 -176 -575 -300 -113 -59 -250
-131 -305 -160 -55 -29 -145 -76 -200 -105 -160 -84 -328 -171 -500 -260 -88
-46 -196 -102 -240 -125 -44 -24 -127 -67 -185 -97 -58 -30 -148 -78 -200
-105 -147 -78 -703 -367 -990 -516 -74 -38 -139 -73 -145 -77 -5 -4 -91 -49
-190 -100 -223 -115 -402 -208 -520 -270 -109 -57 -727 -380 -915 -477 -74
-39 -229 -120 -345 -180 -115 -61 -282 -147 -370 -193 -212 -110 -330 -172
-445 -233 -52 -28 -171 -89 -265 -137 -154 -78 -190 -102 -249 -168 -30 -34
-44 -155 -51 -460 -6 -223 -5 -294 5 -313 17 -34 81 -99 97 -99 17 0 80 -32
365 -187 125 -68 229 -123 231 -123 3 0 98 -51 213 -114 115 -62 252 -136 304
-163 110 -59 124 -66 495 -266 288 -154 738 -397 835 -450 30 -16 129 -69 220
-117 91 -48 232 -124 314 -169 82 -46 186 -101 230 -123 45 -22 117 -62 161
-88 110 -66 188 -91 251 -81 52 8 167 68 604 316 118 67 253 143 300 170 240
134 484 272 610 343 63 36 207 117 320 180 336 189 417 234 580 327 85 48 232
130 325 183 94 52 235 132 315 177 80 45 251 141 380 214 129 73 312 176 405
228 94 53 267 151 385 218 118 68 413 234 655 370 242 136 521 294 620 350
145 83 729 412 1135 641 80 44 184 103 450 254 214 121 337 191 540 305 91 51
235 132 320 180 85 48 205 116 265 150 61 34 180 102 265 150 85 49 205 116
265 150 61 34 180 102 265 150 85 48 205 116 265 150 61 34 180 101 265 150
85 48 205 116 265 150 61 34 232 131 380 215 149 84 342 193 430 243 231 131
414 234 541 306 88 50 116 71 133 101 26 47 37 130 52 380 6 107 15 247 19
310 5 63 9 168 9 233 l1 117 -32 35 c-32 33 -127 86 -543 300 -223 114 -524
270 -625 323 -47 24 -224 116 -395 204 -170 88 -375 194 -455 236 -80 41 -210
108 -290 150 -80 41 -217 111 -305 157 -322 166 -495 255 -720 370 -126 65
-234 121 -240 125 -5 4 -154 80 -330 170 -176 90 -390 199 -475 243 -85 44
-240 123 -345 177 -104 53 -246 126 -315 162 -69 36 -251 129 -405 208 -261
133 -413 211 -920 470 -217 111 -563 288 -1020 521 -159 82 -450 228 -645 326
l-355 178 -75 0 c-74 0 -78 -1 -240 -82 -91 -45 -250 -128 -355 -183 -104 -56
-260 -137 -345 -182 -85 -44 -159 -84 -165 -88 -5 -4 -66 -36 -135 -72 -69
-36 -213 -112 -320 -168 -107 -57 -235 -124 -285 -150 -49 -26 -178 -93 -285
-150 -222 -117 -256 -135 -695 -365 -176 -92 -356 -187 -400 -210 -138 -74
-757 -400 -920 -485 -60 -32 -152 -81 -204 -109 -52 -28 -95 -51 -97 -51 -2 0
-137 -70 -301 -156 -164 -86 -350 -183 -413 -216 -63 -33 -142 -75 -175 -93
-33 -18 -107 -57 -165 -88 -58 -30 -184 -96 -280 -147 -228 -120 -333 -176
-510 -267 -147 -77 -218 -114 -525 -276 -93 -49 -226 -119 -295 -155 -69 -36
-164 -87 -213 -114 -48 -26 -89 -48 -92 -48 -2 0 -140 -71 -307 -159 -167 -87
-348 -182 -403 -211 -55 -29 -127 -67 -160 -85 -75 -41 -270 -143 -397 -207
l-98 -50 -62 35 c-105 58 -215 115 -633 327 -220 111 -404 206 -409 210 -4 5
48 35 115 68 68 33 318 156 554 272 237 117 511 252 610 300 99 48 413 203
698 344 285 141 520 256 522 256 2 0 106 53 232 118 125 64 253 128 283 141
70 31 738 358 1635 801 841 416 1244 614 1520 750 154 76 537 265 850 420 314
155 643 318 733 361 205 99 196 83 211 359 24 425 34 697 27 731 -11 59 -46
101 -111 134 -1336 679 -2724 1375 -2743 1375 -10 0 -22 -4 -27 -9z"/>
<path d="M2680 21423 c-75 -12 -280 -90 -487 -184 -24 -10 -46 -19 -49 -19 -8
0 -214 -92 -364 -162 -61 -28 -68 -35 -102 -97 -71 -129 -65 -2 -77 -1841 -6
-916 -13 -2097 -16 -2625 -9 -1581 -24 -3836 -30 -4370 -3 -275 -10 -1137 -15
-1915 -5 -778 -12 -1854 -16 -2390 -7 -1012 -6 -1046 33 -1125 48 -96 109
-187 137 -204 17 -10 90 -49 161 -86 150 -78 226 -118 800 -417 121 -64 294
-154 385 -200 156 -81 224 -116 500 -261 380 -198 504 -263 690 -359 365 -189
517 -268 748 -389 196 -103 463 -242 757 -394 83 -43 251 -130 375 -195 288
-150 442 -230 610 -317 74 -39 196 -102 270 -140 74 -39 198 -103 275 -143 77
-40 176 -92 220 -115 89 -48 224 -118 455 -237 85 -44 196 -102 245 -128 50
-26 162 -85 250 -130 155 -80 204 -106 500 -260 77 -40 154 -80 170 -90 17
-10 129 -68 250 -130 210 -108 403 -208 600 -310 50 -26 153 -80 230 -120 77
-40 163 -85 190 -100 28 -15 136 -71 240 -125 305 -157 472 -243 590 -305 61
-32 164 -86 230 -120 66 -34 212 -111 325 -170 113 -59 275 -143 360 -187 85
-45 216 -112 290 -151 130 -67 179 -93 445 -232 171 -89 319 -166 480 -250 77
-40 208 -108 292 -151 l151 -79 79 0 c86 0 91 2 373 152 98 52 305 160 550
285 117 60 187 123 209 189 10 30 15 280 22 1119 22 2719 27 3582 18 3638 -19
117 -101 226 -214 282 -54 28 -161 84 -430 225 -49 26 -164 86 -255 132 -195
101 -430 223 -555 288 -49 26 -263 137 -475 248 -212 110 -407 206 -433 213
-44 11 -54 9 -120 -16 -40 -16 -175 -79 -302 -140 -126 -62 -241 -116 -255
-120 -26 -8 -118 -51 -180 -84 -19 -11 -44 -31 -55 -46 -19 -26 -20 -44 -23
-577 -2 -509 -4 -549 -19 -544 -9 4 -346 178 -747 388 -724 377 -849 442
-1101 573 -71 37 -170 89 -220 115 -49 26 -214 112 -365 190 -151 78 -502 261
-780 405 -278 144 -836 435 -1240 645 -404 210 -784 408 -845 440 -60 31 -195
101 -300 155 -104 54 -208 108 -230 120 -22 12 -132 70 -245 128 -475 246
-502 261 -533 299 l-30 37 13 1978 c6 1088 15 2475 19 3083 l7 1105 25 50 c18
37 31 51 55 58 28 8 48 0 190 -73 88 -46 222 -115 299 -155 318 -165 426 -221
550 -285 72 -37 198 -102 280 -145 214 -111 421 -218 560 -290 66 -34 192 -99
280 -145 88 -45 214 -111 280 -145 66 -35 188 -98 270 -140 184 -95 400 -207
560 -290 66 -34 197 -102 290 -150 94 -48 225 -116 293 -151 67 -35 177 -93
245 -128 67 -35 199 -103 292 -151 94 -48 224 -116 290 -150 66 -34 188 -97
270 -140 83 -43 204 -106 270 -140 66 -34 192 -100 280 -145 88 -46 219 -113
290 -150 72 -37 198 -102 280 -145 83 -43 215 -112 295 -153 80 -42 160 -83
179 -92 l34 -15 -6 -893 c-6 -867 -6 -894 13 -956 22 -70 33 -80 165 -151 39
-21 133 -76 211 -121 77 -46 181 -102 230 -125 103 -48 208 -101 349 -174 55
-29 181 -94 280 -145 204 -105 352 -182 523 -272 195 -103 230 -119 266 -125
70 -11 107 4 646 269 146 72 282 141 303 154 278 176 292 187 302 248 6 40 22
1695 36 3749 l11 1618 -29 57 c-37 75 -116 151 -200 194 -89 46 -349 181 -658
343 -324 170 -487 254 -790 410 -104 53 -203 105 -220 115 -16 9 -95 51 -175
93 -80 41 -194 100 -255 132 -316 164 -538 280 -785 408 -155 80 -310 160
-455 237 -97 51 -270 141 -515 268 -171 88 -330 171 -503 261 -61 32 -170 89
-242 126 -71 37 -179 93 -240 125 -60 32 -177 92 -260 135 -82 43 -204 106
-270 140 -66 34 -176 92 -245 127 -69 36 -172 90 -230 120 -289 152 -580 303
-980 511 -80 41 -183 95 -230 119 -163 86 -316 166 -445 233 -71 37 -188 98
-260 135 -71 37 -197 102 -280 145 -228 119 -338 176 -480 250 -293 152 -366
191 -490 255 -71 37 -200 104 -285 148 -85 44 -193 100 -240 124 -47 25 -152
80 -235 123 -82 43 -172 90 -200 105 -27 15 -135 71 -240 125 -296 152 -738
382 -1010 525 -467 246 -749 388 -814 409 -61 20 -104 24 -161 14z"/>
<path d="M27170 20888 c-126 -75 -308 -178 -445 -253 -88 -49 -232 -129 -320
-178 -88 -50 -252 -141 -365 -204 -113 -63 -212 -118 -220 -123 -8 -5 -49 -28
-90 -51 -41 -23 -100 -56 -130 -74 -30 -18 -93 -53 -140 -78 -47 -24 -143 -78
-215 -119 -220 -125 -373 -211 -540 -303 -88 -48 -205 -113 -260 -145 -55 -31
-129 -73 -165 -92 -36 -20 -114 -63 -175 -98 -60 -34 -189 -106 -285 -160 -96
-54 -265 -148 -375 -210 -110 -62 -294 -165 -410 -228 -115 -63 -266 -148
-335 -187 -69 -40 -150 -86 -180 -103 -221 -120 -454 -250 -500 -277 -30 -18
-188 -107 -350 -198 -312 -174 -313 -175 -735 -422 -148 -87 -340 -199 -425
-248 -85 -49 -270 -158 -410 -242 -140 -84 -275 -164 -300 -177 -75 -42 -344
-199 -355 -208 -11 -8 -399 -237 -632 -371 -83 -48 -223 -130 -310 -182 -246
-147 -680 -402 -840 -494 -170 -97 -312 -180 -433 -253 -172 -103 -348 -207
-520 -306 -224 -128 -503 -293 -511 -301 -9 -10 -15 -316 -28 -1378 -14 -1136
-30 -2212 -36 -2515 -3 -140 -8 -394 -10 -565 -16 -1107 -26 -1856 -34 -2600
-6 -467 -13 -944 -16 -1060 -6 -235 -19 -1008 -18 -1070 0 -22 -3 -247 -8
-500 -5 -253 -13 -968 -19 -1590 -8 -811 -14 -1137 -23 -1153 -7 -15 -7 -26
-2 -30 6 -4 7 -134 3 -347 -11 -519 -13 -647 -10 -812 l2 -151 122 -74 c230
-139 433 -265 548 -340 318 -207 669 -418 697 -418 21 0 196 106 798 480 127
79 280 172 340 208 61 36 184 111 275 167 91 56 199 121 240 145 41 25 143 87
225 139 83 51 233 144 335 204 102 61 250 151 330 201 80 49 246 151 370 226
124 75 288 175 365 222 77 47 246 148 375 225 129 77 303 182 385 233 83 51
323 196 535 323 212 127 475 285 585 352 110 68 279 169 375 225 96 56 213
126 260 155 47 29 153 92 235 140 83 49 305 182 495 295 333 199 780 465 1305
775 138 81 347 205 465 275 380 225 877 518 1095 645 50 29 223 130 385 225
162 95 351 205 420 245 142 81 635 370 725 424 l60 36 7 435 c3 239 11 1052
17 1805 7 754 16 1845 21 2425 17 1856 39 4368 50 5640 6 679 15 1690 20 2245
6 556 10 1067 10 1137 l0 128 -42 22 c-75 39 -186 88 -683 301 -396 169 -493
207 -520 206 -11 0 -36 -10 -55 -21z m-965 -7225 c4 -1165 8 -2836 9 -3714 1
-1583 1 -1597 -19 -1619 -11 -13 -38 -31 -61 -41 -23 -10 -78 -54 -123 -98
-86 -83 -175 -140 -611 -388 -96 -55 -215 -124 -265 -152 -49 -29 -162 -94
-250 -143 -154 -88 -402 -232 -495 -288 -25 -15 -92 -53 -150 -85 -58 -32
-138 -78 -179 -103 -41 -24 -162 -95 -270 -157 -108 -62 -263 -152 -346 -200
-82 -48 -240 -139 -350 -202 -348 -201 -498 -289 -685 -400 -74 -44 -220 -129
-325 -188 -104 -59 -206 -118 -225 -130 -19 -12 -111 -66 -205 -120 -196 -113
-382 -221 -685 -397 -118 -69 -330 -192 -470 -273 -140 -81 -329 -191 -420
-243 -91 -53 -259 -144 -375 -202 -179 -91 -384 -203 -513 -282 l-34 -21 7
894 c3 492 8 903 10 914 3 13 34 38 82 66 454 268 749 442 1268 749 99 59 335
198 525 310 190 111 365 215 390 230 54 33 465 276 705 417 94 55 314 185 490
290 176 105 448 266 605 358 157 93 308 182 335 198 58 35 347 205 628 371
228 134 337 205 387 251 19 18 44 35 55 37 11 2 24 13 30 26 5 12 18 22 27 22
17 0 18 129 18 2723 l1 2722 87 59 c233 158 347 234 587 389 255 165 643 426
741 499 27 20 52 37 55 37 4 1 10 -952 14 -2116z"/>
</g>
</svg>
